<?xml version="1.0" encoding="UTF-8" standalone="no"?>
<!-- Created with Inkscape (http://www.inkscape.org/) -->

<svg
   width="66.145828mm"
   height="135.4407mm"
   viewBox="0 0 66.145828 135.4407"
   version="1.1"
   id="svg7219"
   inkscape:version="1.1.1 (3bf5ae0d25, 2021-09-20)"
   sodipodi:docname="car.svg"
   xmlns:inkscape="http://www.inkscape.org/namespaces/inkscape"
   xmlns:sodipodi="http://sodipodi.sourceforge.net/DTD/sodipodi-0.dtd"
   xmlns="http://www.w3.org/2000/svg"
   xmlns:svg="http://www.w3.org/2000/svg">
  <sodipodi:namedview
     id="namedview7221"
     pagecolor="#ffffff"
     bordercolor="#666666"
     borderopacity="1.0"
     inkscape:pageshadow="2"
     inkscape:pageopacity="0.0"
     inkscape:pagecheckerboard="0"
     inkscape:document-units="mm"
     showgrid="false"
     inkscape:zoom="0.64"
     inkscape:cx="-67.1875"
     inkscape:cy="239.84375"
     inkscape:window-width="1920"
     inkscape:window-height="1017"
     inkscape:window-x="-8"
     inkscape:window-y="-8"
     inkscape:window-maximized="1"
     inkscape:current-layer="layer1" />
  <defs
     id="defs7216" />
  <g
     inkscape:label="Capa 1"
     inkscape:groupmode="layer"
     id="layer1"
     transform="translate(-0.31017671,-0.10762732)">
    <path
       style="fill:#000000;stroke-width:0.264583"
       d="m 13.010175,135.159 c -2.809184,-0.60334 -5.9050253,-2.29722 -7.9148423,-4.33056 -2.164385,-2.18973 -3.375314,-4.20874 -4.17017997,-6.95306 L 0.31017671,121.75215 V 69.172362 c 0,-50.974264 0.0155,-52.6404 0.50774602,-54.565043 C 2.5984437,7.6455384 7.8266417,1.8635534 13.563966,0.51117043 14.988081,0.17548246 18.144438,0.11096546 33.303922,0.10767946 c 12.07976,-0.0026 18.508273,0.09203 19.446874,0.286331 5.92473,1.22645894 11.37807,7.09956394 13.197457,14.21330854 0.49225,1.924643 0.50775,3.590779 0.50775,54.565043 v 52.579788 l -0.61498,2.12323 c -1.243287,4.29253 -4.219817,7.88143 -8.138923,9.81337 -3.831347,1.88868 -3.644882,1.87452 -24.451301,1.85606 -14.803559,-0.0132 -18.866008,-0.0906 -20.240624,-0.38581 z m 46.831248,-17.47452 c 0,-0.0874 -1.365385,-2.23051 -3.034189,-4.7625 l -3.034189,-4.60363 -19.918414,0.006 -19.918414,0.006 -2.645834,3.99538 c -1.4552077,2.19745 -2.8658833,4.33805 -3.1348353,4.75689 l -0.489003,0.76151 H 33.753983 c 14.348092,0 26.08744,-0.0715 26.08744,-0.15887 z m -52.5578593,-11.08592 3.5992083,-2.38125 0.0054,-11.819088 0.0054,-11.81908 -0.727604,-0.14075 c -0.4001827,-0.0774 -1.8586973,-0.26995 -3.2411453,-0.42786 -1.382448,-0.15791 -2.781432,-0.34443 -3.108854,-0.41448 l -0.595313,-0.12737 v 14.84376 c 0,8.390888 0.100804,14.805418 0.231881,14.755558 0.127529,-0.0485 1.85152,-1.15975 3.831085,-2.46944 z M 63.810176,93.877532 v -14.44081 l -0.727608,0.14552 c -0.400182,0.08 -1.739635,0.27029 -2.976562,0.42278 -1.236927,0.15248 -2.695443,0.34505 -3.241146,0.42792 l -0.992187,0.15067 v 11.35108 11.351088 l 3.768897,2.51628 c 2.072891,1.38396 3.858826,2.51629 3.968746,2.51629 0.10992,0 0.19986,-6.49836 0.19986,-14.440818 z M 10.893508,68.922962 v -6.58706 l -3.6021583,-9.48638 c -1.981186,-5.21751 -3.700047,-9.72451 -3.819686,-10.01555 -0.119642,-0.29104 -0.225076,6.74659 -0.234299,15.63918 l -0.01677,16.16834 3.108854,0.39959 c 1.70987,0.21978 3.4362756,0.4152 3.8364573,0.43426 l 0.727604,0.0347 z m 49.477081,6.10394 3.307287,-0.44293 0.0682,-16.65753 c 0.0375,-9.16164 -0.0308,-16.54351 -0.15168,-16.40416 -0.12091,0.13935 -1.907745,4.72862 -3.970757,10.19838 l -3.750926,9.94502 v 6.92217 6.92216 l 0.595312,-0.0201 c 0.327422,-0.0111 2.083594,-0.21941 3.902604,-0.46302 z M 53.47014,54.674082 c 2.542061,-9.56477 6.097971,-23.4464 6.024766,-23.51961 -0.203094,-0.2031 -5.732346,-1.65841 -8.252441,-2.17206 -6.376157,-1.29961 -8.593849,-1.48972 -17.330208,-1.48562 -7.310612,0.003 -8.854381,0.0793 -12.567707,0.61763 -5.829993,0.8452 -14.1552073,2.678 -14.1552073,3.11629 0,0.13226 5.9816833,23.08671 6.2469833,23.97253 0.130466,0.43562 1.311497,0.46302 19.954395,0.46302 h 19.815722 z"
       id="path7235" />
    <path
       style="fill:#550000;stroke-width:0.954016"
       d="M 84.430413,511.30099 C 47.449851,510.71923 46.722403,510.63243 36.505412,505.5822 19.847713,497.34835 8.7956626,484.09882 3.4329352,465.93395 L 1.4310239,459.15297 1.4927888,276.56178 C 1.5267594,176.13661 1.8973431,85.384429 2.3163083,74.890253 3.0417249,56.720129 3.2239498,55.414962 6.1362715,47.53017 15.293356,22.738368 35.672872,4.3871963 56.888112,1.8295903 62.12834,1.1978541 89.526784,0.9585192 132.25538,1.1712313 c 65.85481,0.3278394 67.2376,0.373116 72.57339,2.3762716 8.30445,3.1176422 13.92691,6.7721191 21.5315,13.9950081 10.22952,9.716051 16.2137,19.28652 21.5416,34.451359 l 2.01106,5.724096 0.27964,201.725394 0.27963,201.72539 -2.01161,6.25009 c -5.63121,17.49623 -16.04027,29.8948 -31.5397,37.56796 -6.77164,3.35237 -10.68414,4.64693 -16.10053,5.32733 -9.22635,1.15899 -71.74975,1.68911 -116.389947,0.98686 z m 141.737667,-67.3778 c -0.33816,-0.88125 -5.42846,-9.01378 -11.31175,-18.07229 l -10.69691,-16.47003 -76.26664,0.1845 -76.266635,0.18449 -11.714606,17.8878 -11.714604,17.88779 h 99.292995 c 92.58494,0 99.25146,-0.10824 98.67815,-1.60226 z M 35.047206,398.71011 41.473935,394.4856 41.24831,349.16984 41.022686,303.85408 28.705717,302.26648 c -6.774332,-0.87319 -13.321267,-1.7796 -14.548743,-2.01424 L 11.9252,299.8256 v 55.1226 c 0,30.31744 0.252248,55.77996 0.560553,56.58339 0.572282,1.49134 2.160381,0.58884 22.561453,-12.82148 z m 206.694824,-52.2281 c 0.0953,-44.37806 0.007,-47.02312 -1.56851,-46.58374 -0.91824,0.25621 -7.03587,1.16511 -13.59473,2.01978 -6.55886,0.85468 -12.89114,1.75543 -14.07173,2.00167 l -2.14654,0.44772 0.0148,43.15105 0.0148,43.15105 15.01096,9.88686 15.01095,9.88685 0.61449,-8.45583 c 0.33797,-4.65071 0.65995,-29.62814 0.71552,-55.50541 z M 41.52501,260.68486 41.550326,235.16493 27.492944,198.11931 c -9.803723,-25.83589 -14.265604,-36.51697 -14.74551,-35.29859 -0.37847,0.96087 -0.718302,28.2373 -0.755181,60.61429 l -0.06705,58.86725 3.100551,0.58086 c 2.603827,0.48781 21.424277,2.88356 25.281423,3.21821 0.926301,0.0803 1.198172,-5.59364 1.217836,-25.41647 z m 181.2662,24.06705 c 6.5432,-0.79909 13.22313,-1.69257 14.84431,-1.98552 l 2.9476,-0.53263 0.65376,-43.31964 c 0.64966,-43.04687 -0.0123,-83.22528 -1.34739,-81.77993 -0.71993,0.7794 -13.53039,33.77532 -23.73383,61.13128 l -5.79514,15.53706 v 26.20114 c 0,14.41061 0.12015,26.20112 0.26699,26.20112 0.14684,0 5.62051,-0.6538 12.1637,-1.45288 z M 201.77438,210.3809 c 0,-0.25115 2.61172,-10.44719 5.80382,-22.65788 13.23682,-50.63454 17.96371,-69.88688 17.30848,-70.49634 -1.17633,-1.09416 -30.58493,-8.26622 -42.66963,-10.40609 -23.30582,-4.12686 -83.615054,-4.16873 -107.826282,-0.0749 -15.508503,2.62232 -38.332854,7.40829 -42.954454,9.007 -2.073418,0.71724 -3.899446,1.96482 -4.05784,2.7724 -0.405834,2.06918 22.226781,89.32454 23.490332,90.56209 0.356431,0.34911 1.721324,0.82728 3.033096,1.06261 3.236435,0.58061 147.872478,0.80664 147.872478,0.23108 z"
       id="path7644"
       transform="scale(0.26458333)" />
    <path
       style="fill:#550000;stroke-width:0.954016"
       d="m 67.258125,510.43797 c -20.978117,-0.78644 -22.741459,-1.14884 -33.704688,-6.92688 -7.712762,-4.06492 -20.204,-16.52956 -24.1695328,-24.11807 -1.645184,-3.14825 -4.144558,-9.37321 -5.5541638,-13.83323 L 1.2668207,457.45065 1.8955423,267.12447 C 2.2413393,162.44507 2.8945214,71.534993 3.3470583,65.102081 4.0658207,54.884713 4.5901107,52.433827 7.4936994,45.717868 12.693194,33.691515 16.571987,27.828461 24.804415,19.551566 30.010276,14.317587 34.587489,10.756981 39.202616,8.3512349 51.896037,1.7344807 49.580088,1.9074178 125.41503,1.9135576 c 38.39626,0.00311 70.66268,0.4006457 73.76543,0.9088237 9.8091,1.6065589 17.27446,6.0717309 27.92553,16.7027837 7.94947,7.934531 10.33829,11.041381 13.96182,18.158466 2.40431,4.722379 5.25739,11.161986 6.34017,14.310239 1.95974,5.698034 1.97048,6.642788 2.35637,207.49847 l 0.38766,201.77438 -2.85702,7.9904 c -5.57521,15.59253 -15.49542,27.21795 -29.40161,34.4555 -13.10802,6.82214 -12.01477,6.71823 -74.79099,7.10856 -30.95781,0.19249 -65.087735,0.02 -75.844265,-0.38321 z M 225.4733,444.68525 c 1.3461,-0.85318 -0.26227,-3.69282 -14.51898,-25.63374 l -6.35396,-9.77866 H 128.02703 51.45371 l -11.047395,16.93378 c -6.076068,9.31358 -11.346208,17.47042 -11.711423,18.1263 -0.529337,0.95063 19.230694,1.18956 97.417418,1.17792 53.94479,-0.008 98.65724,-0.37956 99.36099,-0.8256 z m -202.804988,-37.462 c 4.323109,-2.70141 10.328715,-6.58117 13.345791,-8.62169 l 5.485591,-3.71004 V 349.1343 c 0,-35.96181 -0.255287,-45.76042 -1.19252,-45.77214 -0.655886,-0.009 -7.190447,-0.86682 -14.521249,-1.90804 -7.330801,-1.04121 -13.448428,-1.89311 -13.594728,-1.89311 -0.146298,0 -0.265997,25.32913 -0.265997,56.28694 0,49.57791 0.171812,56.28695 1.441457,56.28695 0.792801,0 4.978546,-2.21025 9.301655,-4.91165 z m 218.561818,-2.86043 c 0.92879,-8.88618 0.73363,-103.66058 -0.21467,-104.24667 -0.45517,-0.28131 -7.53874,0.42829 -15.74127,1.57688 l -14.91367,2.08836 v 43.72364 43.72364 l 14.54874,9.49534 c 8.00181,5.22243 14.80957,9.49703 15.12835,9.4991 0.31878,0.002 0.85542,-2.63506 1.19252,-5.86029 z M 41.499694,260.02423 V 233.84366 L 31.406317,207.31484 C 18.275401,172.80234 13.797771,162.09203 12.766588,162.72933 12.295276,163.02062 11.9252,189.4636 11.9252,222.84897 c 0,46.81408 0.255824,59.692 1.192519,60.03018 1.758129,0.63473 20.649087,3.08152 24.804416,3.21269 l 3.577559,0.11295 z m 189.016496,24.15345 c 4.52675,-0.57998 8.76098,-1.38238 9.40939,-1.78313 0.90166,-0.55726 1.29752,-12.70345 1.68318,-51.64557 0.48536,-49.00925 -0.0667,-73.33635 -1.66427,-73.33635 -0.94427,0 -1.29158,0.85645 -16.82404,41.4878 l -12.75993,33.37866 v 27.09876 27.09875 l 5.9626,-0.62221 c 3.27943,-0.34222 9.66631,-1.09674 14.19307,-1.67671 z m -27.6,-76.67921 c 6.47753,-23.11701 22.62153,-89.66915 21.92146,-90.36922 -2.34427,-2.34427 -39.52788,-10.593 -55.52819,-12.31825 -14.08212,-1.51841 -67.45347,-1.52738 -82.384022,-0.0138 -11.650009,1.18099 -44.81617,7.44652 -53.823182,10.16793 -2.782111,0.84059 -5.300922,2.16039 -5.597358,2.9329 -0.690826,1.80027 1.865948,12.79344 11.630968,50.00882 10.239326,39.023 10.785255,40.82813 12.68389,41.93959 1.025098,0.60009 28.470671,0.86276 75.949794,0.72688 l 74.34468,-0.21276 0.80196,-2.86205 z"
       id="path7720"
       transform="scale(0.26458333)" />
    <path
       style="fill:#cccccc;stroke-width:0.954016"
       d="m 53.768376,209.21032 c -2.31908,-0.35662 -2.70558,-1.11983 -4.879654,-9.63571 -1.298599,-5.08664 -6.533253,-25.29025 -11.632566,-44.89693 -5.843384,-22.4676 -8.937002,-35.98297 -8.36687,-36.55311 1.25335,-1.25335 12.369296,-4.05796 29.305688,-7.39399 28.498579,-5.61347 34.429612,-6.12955 69.643166,-6.05988 33.90471,0.0671 41.48906,0.63912 61.53403,4.64109 20.06904,4.00678 34.34457,8.06739 34.34457,9.76917 0,1.6105 -5.07155,21.94524 -14.9136,59.79703 -3.41081,13.11772 -6.61881,25.4603 -7.1289,27.42796 l -0.92742,3.57756 -72.22994,-0.14294 c -39.726466,-0.0786 -73.363293,-0.31723 -74.748504,-0.53025 z"
       id="path7894"
       transform="scale(0.26458333)" />
    <path
       style="fill:#cccccc;stroke-width:0.954016"
       d="m 26.528098,283.45008 c -6.922607,-0.87398 -12.828907,-1.83141 -13.125111,-2.12761 -0.296204,-0.2962 -0.427901,-26.82389 -0.292658,-58.95042 l 0.245894,-58.41187 13.594728,35.77754 13.594727,35.77753 v 24.86776 c 0,13.67727 -0.32198,24.82015 -0.715512,24.76194 -0.393531,-0.0582 -6.379462,-0.82089 -13.302068,-1.69487 z"
       id="path7933"
       transform="scale(0.26458333)" />
    <path
       style="fill:#cccccc;stroke-width:0.954016"
       d="m 12.879216,356.24903 v -54.93185 l 5.962599,0.6583 c 3.27943,0.36206 9.397058,1.14752 13.594728,1.74546 l 7.632127,1.08716 0.247847,44.45925 0.247847,44.45926 -13.415677,8.72713 c -7.378622,4.79993 -13.607781,8.72714 -13.842574,8.72714 -0.234794,0 -0.426897,-24.71933 -0.426897,-54.93185 z"
       id="path7972"
       transform="scale(0.26458333)" />
    <path
       style="fill:#cccccc;stroke-width:0.954016"
       d="m 41.499694,427.39915 11.473859,-17.17229 75.115917,0.006 75.11593,0.006 10.31107,15.80149 c 5.67108,8.69082 10.54672,16.4156 10.83474,17.16618 0.45208,1.17809 -12.79786,1.36469 -96.90084,1.36469 H 30.025836 Z"
       id="path8011"
       transform="scale(0.26458333)" />
    <path
       style="fill:#cccccc;stroke-width:0.954016"
       d="m 225.38627,399.14446 -14.07173,-9.13701 v -42.36117 c 0,-23.29864 0.10732,-42.38913 0.2385,-42.42331 0.13118,-0.0342 6.78544,-1.00873 14.78725,-2.16566 l 14.54874,-2.10352 -0.1185,47.24291 c -0.0652,25.98361 -0.38715,50.13234 -0.71551,53.66384 l -0.59701,6.42092 z"
       id="path8050"
       transform="scale(0.26458333)" />
    <path
       style="fill:#cccccc;stroke-width:0.954016"
       d="m 211.31454,259.82433 v -25.57804 l 10.46526,-27.68415 c 5.75589,-15.22628 12.13038,-31.95209 14.16554,-37.16846 l 3.70028,-9.48431 0.69237,16.03838 c 0.38081,8.8211 0.38185,36.14426 0.002,60.71814 l -0.69006,44.67976 -2.48116,0.47624 c -1.36461,0.26193 -6.55955,0.94631 -11.54428,1.52085 -4.98474,0.57454 -10.24375,1.27299 -11.6867,1.55213 l -2.62354,0.50751 z"
       id="path8089"
       transform="scale(0.26458333)" />
  </g>
</svg>
