<?xml version="1.0" encoding="UTF-8" standalone="no"?>
<!-- Created with Inkscape (http://www.inkscape.org/) -->

<svg
   width="30.949293mm"
   height="59.911076mm"
   viewBox="0 0 30.949293 59.911076"
   version="1.1"
   id="svg5"
   sodipodi:docname="ruta.svg"
   inkscape:version="1.1.1 (3bf5ae0d25, 2021-09-20)"
   xmlns:inkscape="http://www.inkscape.org/namespaces/inkscape"
   xmlns:sodipodi="http://sodipodi.sourceforge.net/DTD/sodipodi-0.dtd"
   xmlns="http://www.w3.org/2000/svg"
   xmlns:svg="http://www.w3.org/2000/svg">
  <sodipodi:namedview
     id="namedview7"
     pagecolor="#ffffff"
     bordercolor="#666666"
     borderopacity="1.0"
     inkscape:pageshadow="2"
     inkscape:pageopacity="0.0"
     inkscape:pagecheckerboard="0"
     inkscape:document-units="mm"
     showgrid="false"
     inkscape:zoom="2.9647587"
     inkscape:cx="-8.9383328"
     inkscape:cy="98.658957"
     inkscape:window-width="1920"
     inkscape:window-height="1017"
     inkscape:window-x="-8"
     inkscape:window-y="-8"
     inkscape:window-maximized="1"
     inkscape:current-layer="layer1" />
  <defs
     id="defs2" />
  <g
     inkscape:label="Capa 1"
     inkscape:groupmode="layer"
     id="layer1"
     transform="translate(-11.523065,-8.2704144)">
    <rect
       style="fill:#000000;stroke-width:0.245838"
       id="rect76"
       width="11.601562"
       height="59.911076"
       x="11.601561"
       y="8.2704144" />
    <path
       id="rect76-4"
       style="stroke-width:0.184788"
       transform="rotate(39.834778)"
       d="m 31.288887,-14.888172 h 11.601562 c 0,0 -2.647601,26.902166 1.563623,32.106682 1.533062,1.894662 -0.510156,0.874431 -1.563623,1.743393 -2.983247,2.460768 -11.732761,0.39999 -11.732761,0.39999 0,0 1.510324,-15.8982765 0,-17.7336569 -1.640636,-1.99373867 0.03952,-16.2905431 0.131199,-16.5164081 z"
       sodipodi:nodetypes="ccsscsc" />
    <path
       id="rect144-3-6-4"
       style="fill:#ffff00;stroke-width:0.270039"
       d="m 21.431732,29.657208 1.783008,1.49544 c 0,0 -4.769221,4.91532 -4.843566,6.273464 C 18.354384,37.73283 18.057235,37.268 18.057235,37.268 l -1.292172,-1.986276 c 0,0 1.477412,-0.339374 1.48451,-1.140549 0.01669,-1.883751 3.182158,-4.483965 3.182158,-4.483965 z"
       sodipodi:nodetypes="ccsccsc" />
    <rect
       style="fill:#ffff00;stroke-width:0.258771"
       id="rect144-3-6-7-7-6"
       width="2.2310696"
       height="7"
       x="35.584255"
       y="-5.341074"
       transform="rotate(39.834778)" />
    <rect
       style="fill:#ffff00;stroke-width:0.167182"
       id="rect144-3-6-7-0-8"
       width="2.2310696"
       height="2.9217644"
       x="35.923225"
       y="-14.856491"
       transform="rotate(39.834778)" />
    <rect
       style="fill:#ffff00;stroke-width:0.287821"
       id="rect144-3-6-7-7"
       width="2.2310696"
       height="8.6598635"
       x="16.247225"
       y="30.233971" />
    <rect
       style="fill:#ffff00;stroke-width:0.258771"
       id="rect144-3-6-7-0-0"
       width="2.2310696"
       height="7"
       x="16.247225"
       y="16.233971" />
    <rect
       style="fill:#ffff00;stroke-width:0.0944365"
       id="rect144-3-6-7-0-0-2-5"
       width="2.2310696"
       height="0.93228126"
       x="16.247225"
       y="8.3016901" />
    <rect
       style="fill:#ffff00;stroke-width:0.258771"
       id="rect144-3-6-7-0-3"
       width="2.2310696"
       height="7"
       x="16.247225"
       y="45.893833" />
    <rect
       style="fill:#ffff00;stroke-width:0.258771"
       id="rect144-3-6-7-0-3-0"
       width="2.2310696"
       height="7"
       x="16.247225"
       y="59.893833" />
   <g id="car-fig">
    <path
       style="fill:#550000;stroke-width:0.0293431"
       d="m 16.015768,66.694853 c -1.137427,-0.01787 -1.159801,-0.02057 -1.474048,-0.175895 -0.512348,-0.253251 -0.852279,-0.660776 -1.017222,-1.219477 l -0.06157,-0.208569 0.0019,-5.616023 c 0.0011,-3.088814 0.01245,-5.880118 0.02533,-6.202889 0.02231,-0.558865 0.02792,-0.59901 0.117493,-0.841524 0.281646,-0.762529 0.908467,-1.326963 1.560992,-1.405631 0.161176,-0.01944 1.003881,-0.02678 2.3181,-0.02023 2.025521,0.01012 2.068052,0.0115 2.232168,0.07309 0.255423,0.09589 0.428355,0.208293 0.662252,0.430454 0.314633,0.29884 0.498692,0.593201 0.662564,1.059634 l 0.06186,0.176053 0.0086,6.204546 0.0086,6.204545 -0.06187,0.192235 c -0.173202,0.538141 -0.493358,0.919488 -0.970079,1.155497 -0.208278,0.103108 -0.328617,0.142924 -0.495211,0.163851 -0.283778,0.03567 -2.206834,0.05197 -3.579849,0.03038 z m 4.359479,-2.072369 c -0.01034,-0.02711 -0.166966,-0.277238 -0.34792,-0.555856 l -0.329009,-0.506574 -2.345762,0.0057 -2.345762,0.0057 -0.360311,0.55018 -0.36031,0.550185 h 3.053992 c 2.847671,0 3.052715,-0.0033 3.035082,-0.04925 z m -5.878378,-1.390633 0.197669,-0.129933 -0.0069,-1.393796 -0.0069,-1.393794 -0.378838,-0.04881 c -0.208361,-0.02688 -0.409727,-0.05473 -0.447481,-0.06195 l -0.06864,-0.01313 v 1.695425 c 0,0.932484 0.0077,1.715646 0.01724,1.740355 0.0176,0.04588 0.06645,0.01808 0.693932,-0.394354 z m 6.357392,-1.606398 c 0.003,-1.364955 2.2e-4,-1.446312 -0.04824,-1.432796 -0.02825,0.0078 -0.216405,0.03585 -0.418138,0.06213 -0.201734,0.02627 -0.396498,0.05399 -0.432809,0.06156 l -0.06602,0.01375 4.52e-4,1.32721 4.54e-4,1.327216 0.461698,0.304093 0.461698,0.304093 0.01889,-0.26008 c 0.01034,-0.143044 0.02029,-0.911282 0.02202,-1.707199 z m -6.158152,-2.6389 7.61e-4,-0.784921 -0.432369,-1.139429 c -0.301536,-0.794643 -0.438773,-1.123168 -0.453533,-1.085694 -0.01164,0.02953 -0.0221,0.868509 -0.02323,1.864336 l -0.002,1.810604 0.09537,0.01787 c 0.08009,0.01499 0.658954,0.08868 0.77759,0.09898 0.0285,0.0023 0.03685,-0.172045 0.03746,-0.781748 z m 5.575273,0.740244 c 0.201253,-0.02457 0.406709,-0.05208 0.456573,-0.06107 l 0.09066,-0.0164 0.02011,-1.332396 c 0.01998,-1.324008 -3.85e-4,-2.559792 -0.04144,-2.515334 -0.02214,0.02395 -0.416161,1.038837 -0.729992,1.880236 l -0.178243,0.477881 v 0.805876 c 0,0.44323 0.0038,0.805876 0.0082,0.805876 0.0044,0 0.172872,-0.02012 0.374124,-0.04469 z M 19.62496,57.43934 c 0,-0.0077 0.08033,-0.321329 0.178511,-0.696898 0.407129,-1.557386 0.552516,-2.149539 0.532363,-2.168284 -0.03618,-0.03364 -0.940713,-0.254248 -1.312405,-0.320066 -0.716827,-0.126928 -2.571781,-0.12822 -3.316455,-0.0023 -0.477001,0.08066 -1.179017,0.227859 -1.321166,0.277034 -0.06377,0.02204 -0.119937,0.06043 -0.12481,0.08527 -0.01248,0.06364 0.683638,2.747387 0.722503,2.785448 0.01091,0.0108 0.05295,0.02542 0.09329,0.03269 0.09955,0.01787 4.548169,0.02479 4.548169,0.007 z"
       id="path7644" />
    <path
       style="fill:#550000;stroke-width:0.0293431"
       d="m 15.487593,66.668307 c -0.645232,-0.02418 -0.699468,-0.03534 -1.036668,-0.213053 -0.237224,-0.125025 -0.621422,-0.508406 -0.743391,-0.741807 -0.05061,-0.09683 -0.127477,-0.288293 -0.170832,-0.425475 l -0.07883,-0.249419 0.01933,-5.853932 c 0.01068,-3.219667 0.03073,-6.015817 0.04464,-6.213682 0.02211,-0.314254 0.03824,-0.389643 0.127539,-0.596203 0.159922,-0.369899 0.279224,-0.550231 0.532432,-0.804811 0.160119,-0.160983 0.300901,-0.270496 0.44285,-0.344493 0.390416,-0.203513 0.319184,-0.198192 2.651668,-0.198005 1.180969,9.6e-5 2.1734,0.01234 2.268832,0.02795 0.301703,0.04942 0.531317,0.186751 0.858916,0.513731 0.244505,0.244047 0.317978,0.339606 0.429429,0.558511 0.07395,0.145246 0.161703,0.343313 0.195007,0.440146 0.06028,0.175253 0.06061,0.204313 0.07247,6.38211 l 0.01192,6.206051 -0.08788,0.24576 c -0.171479,0.479588 -0.476598,0.837155 -0.904315,1.059763 -0.40317,0.209829 -0.369543,0.206634 -2.300377,0.218639 -0.95218,0.0059 -2.001927,5.63e-4 -2.33277,-0.01178 z m 4.866285,-2.022383 c 0.0414,-0.02627 -0.0081,-0.113576 -0.446567,-0.788427 L 19.71188,63.556735 H 17.356685 15.00149 l -0.339789,0.520839 c -0.186884,0.286457 -0.34898,0.53734 -0.360212,0.557518 -0.01629,0.02926 0.591485,0.03658 2.996304,0.03624 1.659201,-2.31e-4 3.034439,-0.01167 3.056085,-0.02542 z m -6.237752,-1.152233 c 0.132968,-0.08309 0.317685,-0.20242 0.410483,-0.265177 l 0.168722,-0.114112 v -1.407373 c 0,-1.106092 -0.0078,-1.407474 -0.03668,-1.407828 -0.02018,-2.83e-4 -0.22116,-0.02665 -0.446636,-0.05869 -0.225475,-0.03202 -0.413638,-0.05823 -0.418138,-0.05823 -0.0044,0 -0.0082,0.779055 -0.0082,1.731237 0,1.524889 0.0053,1.731242 0.04433,1.731242 0.02438,0 0.153127,-0.06798 0.286095,-0.151074 z m 6.72239,-0.08798 c 0.02856,-0.273316 0.02256,-3.188324 -0.0066,-3.206354 -0.014,-0.0086 -0.231873,0.01319 -0.484161,0.04852 l -0.458706,0.06422 v 1.344828 1.344824 l 0.44748,0.292049 c 0.246116,0.160633 0.455505,0.292105 0.465309,0.292166 0.0098,6.3e-5 0.02631,-0.08104 0.03668,-0.180246 z M 14.695331,58.966234 V 58.16099 l -0.310446,-0.81596 c -0.403873,-1.06151 -0.541593,-1.390931 -0.57331,-1.371329 -0.01449,0.009 -0.02588,0.822277 -0.02588,1.84912 0,1.439881 0.0078,1.835971 0.03668,1.84637 0.05408,0.0195 0.63511,0.09477 0.762918,0.09881 l 0.110041,0.0033 z m 5.813652,0.742899 c 0.139231,-0.0178 0.269465,-0.0425 0.289408,-0.05484 0.02773,-0.01714 0.03991,-0.390724 0.05178,-1.58848 0.01494,-1.507401 -0.002,-2.255637 -0.05119,-2.255637 -0.02904,0 -0.03972,0.02631 -0.517463,1.276058 l -0.392463,1.026639 v 0.833488 0.833487 l 0.183395,-0.01916 c 0.100868,-0.01057 0.29731,-0.0337 0.436542,-0.05157 z m -0.848904,-2.358449 c 0.199233,-0.711022 0.69578,-2.75799 0.674247,-2.779525 -0.07211,-0.0721 -1.215774,-0.325814 -1.707901,-0.378878 -0.43313,-0.04673 -2.074693,-0.04694 -2.533917,-4.22e-4 -0.358325,0.03635 -1.378428,0.229038 -1.65546,0.312739 -0.08557,0.02587 -0.163043,0.06645 -0.17216,0.09021 -0.02124,0.05534 0.05739,0.393492 0.357738,1.53814 0.314934,1.200241 0.331726,1.255763 0.390122,1.289951 0.03153,0.01848 0.875684,0.02654 2.336018,0.02238 l 2.286647,-0.0066 0.02466,-0.08802 z"
       id="path7720" />
    <path
       style="fill:#cccccc;stroke-width:0.0293431"
       d="m 15.072684,57.403337 c -0.07134,-0.01103 -0.08322,-0.03443 -0.150086,-0.296372 -0.03994,-0.156452 -0.200946,-0.777865 -0.357787,-1.380911 -0.179728,-0.691047 -0.274879,-1.106745 -0.257343,-1.124279 0.03854,-0.03854 0.380447,-0.12481 0.901366,-0.227419 0.876541,-0.172655 1.058964,-0.188533 2.142042,-0.186385 1.042819,0.0023 1.276094,0.01966 1.892626,0.142744 0.617269,0.123237 1.056348,0.248132 1.056348,0.300475 0,0.04954 -0.155987,0.674978 -0.458703,1.8392 -0.104904,0.403467 -0.203578,0.783095 -0.219267,0.843615 l -0.02852,0.11003 -2.221605,-0.0044 c -1.221882,-0.0023 -2.256463,-0.0098 -2.299066,-0.01629 z"
       id="path7894" />
    <path
       style="fill:#cccccc;stroke-width:0.0293431"
       d="m 14.234843,59.686753 c -0.212921,-0.02688 -0.394583,-0.0563 -0.403693,-0.06544 -0.0091,-0.0091 -0.01316,-0.825034 -0.009,-1.813163 l 0.0075,-1.796591 0.418139,1.100421 0.418138,1.100422 v 0.764868 c 0,0.42068 -0.0099,0.763403 -0.02202,0.761611 -0.01211,-0.0017 -0.196215,-0.02526 -0.409136,-0.05214 z"
       id="path7933" />
    <path
       style="fill:#cccccc;stroke-width:0.0293431"
       d="m 13.81504,61.925859 v -1.689557 l 0.183394,0.02023 c 0.100868,0.01114 0.289029,0.03528 0.418138,0.05365 l 0.234744,0.03342 0.0076,1.367452 0.0076,1.367451 -0.412631,0.268422 c -0.226947,0.147631 -0.41854,0.268423 -0.425761,0.268423 -0.0073,0 -0.01313,-0.760304 -0.01313,-1.689557 z"
       id="path7972" />
    <path
       style="fill:#cccccc;stroke-width:0.0293431"
       d="m 14.695331,64.114253 0.352905,-0.528177 2.310369,2.32e-4 2.31037,2.36e-4 0.317142,0.486008 c 0.174426,0.267306 0.324389,0.504905 0.333248,0.527991 0.0139,0.03625 -0.39363,0.04199 -2.980417,0.04199 h -2.996523 z"
       id="path8011" />
    <path
       style="fill:#cccccc;stroke-width:0.0293431"
       d="m 20.351201,63.245209 -0.43281,-0.281031 v -1.30292 c 0,-0.716601 0.0033,-1.303776 0.0073,-1.304829 0.004,-0.0011 0.208702,-0.031 0.454816,-0.06661 l 0.447482,-0.06471 -0.0036,1.45307 c -0.002,0.799191 -0.01191,1.541939 -0.02202,1.650563 l -0.01836,0.197486 z"
       id="path8050" />
    <path
       style="fill:#cccccc;stroke-width:0.0293431"
       d="m 19.918391,58.960087 v -0.786714 l 0.321884,-0.851489 c 0.177036,-0.468321 0.373098,-0.982764 0.435694,-1.143205 l 0.113812,-0.291716 0.02129,0.4933 c 0.01171,0.271315 0.01174,1.111706 6.1e-5,1.867535 l -0.02123,1.374231 -0.07632,0.01466 c -0.04197,0.0081 -0.201755,0.02908 -0.355071,0.04677 -0.153318,0.0177 -0.315071,0.03917 -0.359453,0.04774 l -0.08069,0.01561 z"
       id="path8089" />
   </g>
    <path
       style="fill:none;stroke:#e60000;stroke-width:0.264583px;stroke-linecap:butt;stroke-linejoin:miter;stroke-opacity:0"
       d="m 17.368467,60.075852 c 0,0 -0.28212,-14.729392 -0.03982,-22.178026 0.104643,-3.216831 20.666617,-25.557192 20.666617,-25.557192"
       id="path8419"
       sodipodi:nodetypes="csc" />
  </g>
</svg>
